<?xml version="1.0" encoding="iso-8859-1"?>
<!-- Generator: Adobe Illustrator 19.0.0, SVG Export Plug-In . SVG Version: 6.00 Build 0)  -->
<svg xmlns="http://www.w3.org/2000/svg" xmlns:xlink="http://www.w3.org/1999/xlink" version="1.1" id="Layer_1" x="0px" y="0px" viewBox="0 0 512 512" style="enable-background:new 0 0 512 512;" xml:space="preserve">
<path style="fill:#FFDC64;" d="M452.676,401.37V95.603c0-6.804-2.703-13.329-7.513-18.14L383.23,15.53  c-4.811-4.811-11.336-7.513-18.14-7.513H161.937c-9.446,0-17.102,7.656-17.102,17.102V401.37c0,9.446,7.656,17.102,17.102,17.102  h273.637C445.02,418.472,452.676,410.815,452.676,401.37z"/>
<path style="fill:#FFC850;" d="M144.835,67.875h132.669c13.607,0,26.657,5.405,36.279,15.028l64.007,64.007  c9.622,9.622,15.028,22.672,15.028,36.279v235.283H161.937c-9.446,0-17.102-7.656-17.102-17.102L144.835,67.875L144.835,67.875z"/>
<path style="fill:#E4EAF8;" d="M367.165,486.881V181.114c0-6.804-2.703-13.329-7.513-18.14l-61.933-61.933  c-4.811-4.811-11.336-7.513-18.14-7.513H76.426c-9.446,0-17.102,7.656-17.102,17.102v376.251c0,9.446,7.656,17.102,17.102,17.102  h273.637C359.508,503.983,367.165,496.327,367.165,486.881z"/>
<rect x="273.637" y="98.873" style="fill:#D5DCED;" width="16.033" height="32.067"/>
<rect x="359.148" y="11.223" style="fill:#FFC850;" width="16.033" height="34.205"/>
<path d="M303.387,95.373c-6.36-6.359-14.815-9.862-23.809-9.862H76.426c-13.851,0-25.119,11.268-25.119,25.119v376.251  c0,13.851,11.268,25.119,25.119,25.119h273.637c13.851,0,25.119-11.268,25.119-25.119V181.114c0-8.994-3.502-17.449-9.862-23.809  L303.387,95.373z M350.063,495.967H76.426c-5.01,0-9.086-4.076-9.086-9.086V110.63c0-5.01,4.076-9.086,9.086-9.086h203.153  c4.711,0,9.14,1.834,12.471,5.166l61.933,61.933c2.965,2.965,4.735,6.801,5.091,10.93h-60.318c-5.01,0-9.086-4.076-9.086-9.086  v-42.756c0-4.428-3.588-8.017-8.017-8.017s-8.017,3.588-8.017,8.017v42.756c0,13.851,11.268,25.119,25.119,25.119h60.392v291.273  C359.148,491.891,355.073,495.967,350.063,495.967z"/>
<path d="M450.831,71.794L388.899,9.862C382.539,3.502,374.084,0,365.09,0H161.937c-13.851,0-25.119,11.268-25.119,25.119v34.205  c0,4.428,3.589,8.017,8.017,8.017c4.427,0,8.017-3.588,8.017-8.017V25.119c0-5.01,4.076-9.086,9.086-9.086H365.09  c4.711,0,9.14,1.834,12.471,5.166l61.933,61.933c2.965,2.965,4.735,6.801,5.091,10.931h-60.318c-5.01,0-9.086-4.076-9.086-9.086  V42.221c0-4.428-3.588-8.017-8.017-8.017c-4.428,0-8.017,3.588-8.017,8.017v42.756c0,13.851,11.268,25.119,25.119,25.119h60.392  V401.37c0,5.01-4.076,9.086-9.086,9.086h-34.207c-4.428,0-8.017,3.588-8.017,8.017s3.588,8.017,8.017,8.017h34.207  c13.851,0,25.119-11.268,25.119-25.119V95.603C460.693,86.609,457.191,78.154,450.831,71.794z"/>
<path d="M255.193,280.995c-4.536-4.537-10.505-7.119-16.885-7.337c-0.22-6.125-2.637-12.185-7.302-16.851l-48.373-48.373  c-9.793-9.792-25.729-9.793-35.524,0l-24.186,24.187c-4.744,4.744-7.357,11.052-7.357,17.762s2.613,13.018,7.357,17.762  l48.372,48.372c4.536,4.537,10.505,7.119,16.885,7.337c0.22,6.125,2.637,12.185,7.302,16.851l48.373,48.373  c4.898,4.897,11.329,7.344,17.762,7.344c6.433,0,12.864-2.448,17.762-7.344l24.187-24.187c9.793-9.794,9.793-25.729,0-35.524  L255.193,280.995z M182.633,305.18l-48.373-48.373c-1.716-1.716-2.662-3.997-2.662-6.424s0.945-4.707,2.662-6.424l24.186-24.187  c1.771-1.771,4.097-2.657,6.424-2.657s4.654,0.886,6.425,2.657l48.372,48.372c3.542,3.542,3.542,9.308,0,12.849l-6.424,6.424  l-18.518-18.518c-3.131-3.13-8.207-3.13-11.337,0c-3.131,3.132-3.131,8.207,0,11.338l18.518,18.516l-6.424,6.424  c-1.716,1.716-3.998,2.66-6.424,2.66C186.632,307.841,184.35,306.896,182.633,305.18L182.633,305.18z M292.228,353.553  l-24.187,24.187c-3.541,3.542-9.306,3.542-12.849,0l-48.372-48.372c-3.542-3.542-3.542-9.308,0-12.849l6.424-6.424l18.518,18.518  c1.565,1.565,3.617,2.347,5.668,2.347s4.103-0.782,5.668-2.347c3.131-3.132,3.131-8.207,0-11.338l-18.516-18.519l6.424-6.424  c1.716-1.716,3.998-2.66,6.424-2.66c2.426,0,4.707,0.945,6.424,2.662l48.373,48.373C295.77,344.247,295.77,350.01,292.228,353.553z"/>
<g>
</g>
<g>
</g>
<g>
</g>
<g>
</g>
<g>
</g>
<g>
</g>
<g>
</g>
<g>
</g>
<g>
</g>
<g>
</g>
<g>
</g>
<g>
</g>
<g>
</g>
<g>
</g>
<g>
</g>
</svg>
