<?xml version="1.0" encoding="iso-8859-1"?>
<!-- Generator: Adobe Illustrator 21.0.2, SVG Export Plug-In . SVG Version: 6.00 Build 0)  -->
<svg version="1.1" xmlns="http://www.w3.org/2000/svg" xmlns:xlink="http://www.w3.org/1999/xlink" x="0px" y="0px"
	 viewBox="0 0 64 64" style="enable-background:new 0 0 64 64;" xml:space="preserve">
<g id="css">
</g>
<g id="mobile_development">
</g>
<g id="code">
</g>
<g id="hardware_programming">
</g>
<g id="python">
</g>
<g id="development">
</g>
<g id="update">
</g>
<g id="maintenance">
</g>
<g id="peformance_testing">
</g>
<g id="programming">
</g>
<g id="hacker">
</g>
<g id="web_programming">
</g>
<g id="html">
</g>
<g id="typing">
</g>
<g id="search_1_">
</g>
<g id="android">
</g>
<g id="coding">
</g>
<g id="file">
</g>
<g id="api">
</g>
<g id="java">
</g>
<g id="xml">
</g>
<g id="security">
</g>
<g id="algorithm">
</g>
<g id="php">
</g>
<g id="eror">
</g>
<g id="bug">
</g>
<g id="c_x2B__x2B_">
	<g>
		<path d="M57.7363,7.6675H6.2607C3.3604,7.6675,1,10.0273,1,12.9282v30.6694c0,2.9028,2.3604,5.2642,5.2607,5.2642h18.4951v5.4707
			H17.834c-0.5527,0-1,0.4478-1,1s0.4473,1,1,1h28.3496c0.5527,0,1-0.4478,1-1s-0.4473-1-1-1h-6.9258v-5.4707h18.4785
			c2.9023,0,5.2637-2.3613,5.2637-5.2642V12.9282C63,10.0273,60.6387,7.6675,57.7363,7.6675z M6.2607,9.6675h51.4756
			c1.7998,0,3.2637,1.4629,3.2637,3.2607v26.4321H3V12.9282C3,11.1304,4.4629,9.6675,6.2607,9.6675z M37.2578,54.3325h-10.502
			v-5.4707h10.502V54.3325z M57.7363,46.8618H6.2607C4.4629,46.8618,3,45.3975,3,43.5977v-2.2373h58v2.2373
			C61,45.3975,59.5361,46.8618,57.7363,46.8618z"/>
		<path d="M31.5176,43.2646c-0.4678,0.2939-0.6084,0.9111-0.3145,1.3789l0.0107,0.0171c0.1885,0.2998,0.5078,0.4619,0.8359,0.4619
			c0.1836,0,0.3701-0.0508,0.5371-0.1563c0.4678-0.2939,0.6035-0.9194,0.3096-1.3872
			C32.6025,43.1123,31.9844,42.9692,31.5176,43.2646z"/>
		<path d="M8.2285,28.6094H32.875c0.5527,0,1-0.4478,1-1s-0.4473-1-1-1H8.2285c-0.5527,0-1,0.4478-1,1
			S7.6758,28.6094,8.2285,28.6094z"/>
		<path d="M8.2285,22.3262h49.8467c0.5527,0,1-0.4478,1-1s-0.4473-1-1-1H8.2285c-0.5527,0-1,0.4478-1,1
			S7.6758,22.3262,8.2285,22.3262z"/>
		<path d="M8.2285,16.043h49.8467c0.5527,0,1-0.4478,1-1s-0.4473-1-1-1H8.2285c-0.5527,0-1,0.4478-1,1S7.6758,16.043,8.2285,16.043z
			"/>
		<path d="M8.2285,34.8892H32.875c0.5527,0,1-0.4478,1-1s-0.4473-1-1-1H8.2285c-0.5527,0-1,0.4478-1,1
			S7.6758,34.8892,8.2285,34.8892z"/>
		<path d="M41.543,27.3706c0.834,0,1.6328,0.3047,2.251,0.8574c0.4121,0.3682,1.0449,0.335,1.4121-0.0781
			c0.3682-0.4116,0.333-1.0439-0.0781-1.4121c-0.9854-0.8818-2.2578-1.3672-3.585-1.3672c-2.9648,0-5.377,2.4121-5.377,5.377
			c0,2.9668,2.4121,5.3804,5.377,5.3804c1.3242,0,2.5977-0.4868,3.585-1.3706c0.4111-0.3682,0.4463-1.0005,0.0781-1.4121
			c-0.3682-0.4111-1.002-0.4473-1.4121-0.0781c-0.6201,0.5552-1.4199,0.8608-2.251,0.8608c-1.8623,0-3.377-1.5166-3.377-3.3804
			C38.166,28.8857,39.6807,27.3706,41.543,27.3706z"/>
		<path d="M50.7344,29.7476h-0.8242v-1.0464c0-0.5522-0.4473-1-1-1s-1,0.4478-1,1v1.0464h-0.8242c-0.5527,0-1,0.4478-1,1
			s0.4473,1,1,1h0.8242v1.0464c0,0.5522,0.4473,1,1,1s1-0.4478,1-1v-1.0464h0.8242c0.5527,0,1-0.4478,1-1
			S51.2871,29.7476,50.7344,29.7476z"/>
		<path d="M57.7393,29.7476H56.915v-1.0464c0-0.5522-0.4473-1-1-1s-1,0.4478-1,1v1.0464h-0.8232c-0.5527,0-1,0.4478-1,1
			s0.4473,1,1,1h0.8232v1.0464c0,0.5522,0.4473,1,1,1s1-0.4478,1-1v-1.0464h0.8242c0.5527,0,1-0.4478,1-1
			S58.292,29.7476,57.7393,29.7476z"/>
	</g>
</g>
<g id="search">
</g>
<g id="binary">
</g>
<g id="database_sql">
</g>
</svg>
