<svg version="1.1" xmlns="http://www.w3.org/2000/svg" xmlns:xlink="http://www.w3.org/1999/xlink" width="32" height="32" viewBox="0,0,256,256"><g fill="#5c7cfa" fill-rule="nonzero" stroke="none" stroke-width="1" stroke-linecap="butt" stroke-linejoin="miter" stroke-miterlimit="10" stroke-dasharray="" stroke-dashoffset="0" font-family="none" font-weight="none" font-size="none" text-anchor="none" style="mix-blend-mode: normal"><g transform="translate(-0.003,-2.27839) scale(8,8)"><path d="M16.392,2.991c-0.627,0.053 -1.097,0.14 -1.539,0.283c-0.27,0.088 -0.859,0.311 -1.073,0.406c-0.173,0.076 -0.928,0.491 -1.406,0.77c-0.834,0.488 -1.265,0.952 -1.466,1.582c-0.04,0.123 -0.057,0.153 -0.097,0.175c-0.198,0.108 -0.386,0.276 -0.513,0.459c-0.195,0.285 -0.335,0.726 -0.379,1.198c-0.01,0.11 -0.023,0.238 -0.027,0.286l-0.008,0.086l-0.195,0.171c-0.536,0.473 -1.11,1.118 -1.534,1.727c-0.879,1.261 -1.469,2.767 -1.679,4.277c-0.075,0.544 -0.092,0.8 -0.092,1.423c0,0.623 0.017,0.878 0.092,1.423c0.136,0.985 0.453,2.018 0.897,2.94c0.521,1.08 1.288,2.118 2.147,2.909l0.245,0.225l0.02,0.313c0.012,0.171 0.028,0.517 0.035,0.769c0.018,0.582 0.042,0.682 0.186,0.805c0.083,0.071 0.216,0.136 0.488,0.238c0.11,0.042 0.458,0.201 0.774,0.354c0.802,0.391 1.062,0.496 1.461,0.592c0.28,0.068 0.344,0.076 0.709,0.088l0.349,0.01l0.113,0.391c0.205,0.699 0.376,1.266 0.471,1.556c0.118,0.358 0.273,0.777 0.298,0.8c0.025,0.027 0.271,0.1 0.529,0.158c0.93,0.21 2.38,0.238 3.766,0.072c0.469,-0.057 0.792,-0.233 0.907,-0.494c0.03,-0.067 0.032,-0.09 0.017,-0.19c-0.008,-0.062 -0.022,-0.208 -0.027,-0.323l-0.012,-0.21l0.148,-0.028c0.484,-0.093 0.726,-0.22 0.832,-0.436c0.035,-0.073 0.045,-0.121 0.052,-0.261c0.012,-0.215 -0.008,-0.353 -0.113,-0.819c-0.142,-0.614 -0.17,-0.847 -0.133,-1.068l0.021,-0.12l0.105,-0.035c0.225,-0.075 0.325,-0.186 0.325,-0.364v-0.086l0.105,-0.048c0.25,-0.113 0.524,-0.165 0.927,-0.178l0.291,-0.008l0.047,0.082c0.027,0.043 0.075,0.113 0.11,0.153c0.062,0.072 0.065,0.073 0.236,0.103c0.523,0.09 1.06,0.091 1.469,0.005c0.318,-0.067 0.424,-0.12 0.586,-0.293c0.301,-0.325 0.509,-0.949 0.508,-1.536c0,-0.26 -0.015,-0.351 -0.12,-0.716c-0.146,-0.507 -0.336,-1.023 -0.478,-1.298c-0.088,-0.171 -0.225,-0.321 -0.373,-0.409c-0.053,-0.03 -0.096,-0.062 -0.096,-0.07c0,-0.007 0.038,-0.08 0.085,-0.163c0.133,-0.236 0.399,-0.797 0.513,-1.075c0.389,-0.97 0.612,-1.932 0.702,-3.034c0.025,-0.309 0.025,-1.135 0,-1.448c-0.088,-1.093 -0.311,-2.06 -0.702,-3.033c-0.13,-0.323 -0.454,-0.983 -0.631,-1.285c-0.403,-0.684 -0.894,-1.328 -1.448,-1.897l-0.259,-0.266l-0.03,-0.329c-0.101,-1.155 -0.373,-2.098 -0.782,-2.724c-0.298,-0.456 -0.913,-1.115 -1.466,-1.569c-0.657,-0.541 -1.453,-0.845 -2.571,-0.985c-0.198,-0.025 -1.13,-0.047 -1.315,-0.032zM17.649,3.619c0.637,0.103 1.268,0.301 1.835,0.579c0.399,0.196 0.601,0.344 0.927,0.681c0.228,0.236 0.812,0.963 0.845,1.053c0.012,0.028 0.005,0.03 -0.067,0.02c-0.304,-0.04 -0.454,-0.028 -0.629,0.055c-0.215,0.1 -0.336,0.27 -0.345,0.481c-0.002,0.038 0.002,0.075 0.007,0.08c0.005,0.005 0.037,-0.01 0.072,-0.033c0.131,-0.09 0.233,-0.117 0.449,-0.117c0.181,0 0.215,0.005 0.358,0.055c0.228,0.077 0.398,0.183 0.574,0.359c0.321,0.319 0.431,0.699 0.491,1.706c0.03,0.486 0.04,1.459 0.018,1.764c-0.095,1.343 -0.451,2.588 -1.008,3.534c-0.123,0.21 -0.552,0.852 -0.656,0.982c-0.138,0.171 -0.318,0.333 -0.518,0.463c-0.601,0.391 -1.233,0.646 -1.824,0.739c-0.241,0.037 -0.691,0.037 -0.905,0c-0.228,-0.04 -0.567,-0.16 -0.874,-0.309c-0.8,-0.391 -1.338,-0.909 -2.201,-2.122l-0.106,-0.15l0.01,0.083c0.051,0.373 0.268,0.755 0.707,1.256c0.507,0.576 0.879,0.915 1.2,1.095c0.06,0.033 0.12,0.072 0.133,0.085c0.022,0.02 0.013,0.022 -0.058,0.012c-0.047,-0.005 -0.176,-0.015 -0.291,-0.02c-0.338,-0.017 -0.562,0.053 -0.674,0.208l-0.05,0.07l-0.175,-0.01c-0.97,-0.055 -1.557,-0.235 -1.907,-0.586c-0.381,-0.381 -0.927,-1.646 -1.047,-2.428c-0.04,-0.253 -0.03,-0.278 0.16,-0.484c0.21,-0.226 0.246,-0.309 0.196,-0.454c-0.018,-0.052 -0.022,-0.053 -0.093,-0.043c-0.097,0.013 -0.151,0.042 -0.329,0.178c-0.082,0.062 -0.171,0.122 -0.2,0.131c-0.155,0.06 -0.409,0.05 -0.589,-0.023c-0.448,-0.181 -0.852,-0.767 -0.973,-1.408c-0.035,-0.181 -0.035,-0.506 0,-0.647c0.08,-0.325 0.293,-0.617 0.566,-0.777c0.198,-0.117 0.471,-0.17 0.706,-0.142c0.376,0.048 0.584,0.3 0.737,0.895l0.055,0.213l0.18,-0.003c0.298,-0.003 0.539,-0.083 0.631,-0.208c0.033,-0.043 0.033,-0.048 0.005,-0.233c-0.017,-0.103 -0.061,-0.316 -0.101,-0.471c-0.19,-0.751 -0.188,-0.87 0.032,-1.922c0.102,-0.486 0.128,-0.686 0.13,-0.94c0.002,-0.238 -0.028,-0.426 -0.095,-0.624c-0.023,-0.067 -0.042,-0.141 -0.042,-0.165c0,-0.055 0.111,-0.258 0.25,-0.454c0.138,-0.198 0.576,-0.639 0.832,-0.835c0.243,-0.188 0.691,-0.484 0.982,-0.649c0.869,-0.493 1.176,-0.581 1.988,-0.567c0.344,0.005 0.461,0.013 0.682,0.048zM14.321,4.08c0.088,0.07 0.02,0.193 -0.135,0.243c-0.06,0.018 -0.113,0.053 -0.178,0.115c-0.052,0.048 -0.17,0.146 -0.265,0.216c-0.261,0.196 -0.348,0.295 -0.544,0.621c-0.213,0.353 -0.316,0.489 -0.413,0.551c-0.098,0.063 -0.188,0.075 -0.378,0.052c-0.2,-0.027 -0.303,-0.01 -0.662,0.108c-0.313,0.101 -0.429,0.125 -0.429,0.088c0,-0.013 0.037,-0.087 0.083,-0.161c0.321,-0.541 0.924,-1.047 1.722,-1.448c0.288,-0.145 0.461,-0.218 0.782,-0.33c0.28,-0.098 0.348,-0.106 0.416,-0.055zM12.617,6.27c0.065,0.171 0.087,0.304 0.095,0.576c0.008,0.316 -0.007,0.496 -0.088,1.018c-0.09,0.586 -0.098,0.667 -0.098,0.965c0,0.315 0.012,0.393 0.108,0.721c0.075,0.256 0.098,0.454 0.065,0.536c-0.023,0.056 -0.077,0.091 -0.168,0.108l-0.06,0.012l-0.012,-0.113c-0.03,-0.298 -0.18,-0.566 -0.423,-0.759c-0.24,-0.19 -0.504,-0.283 -0.81,-0.283c-0.213,0 -0.363,0.033 -0.572,0.13c-0.075,0.033 -0.138,0.058 -0.143,0.053c-0.022,-0.022 -0.047,-0.471 -0.048,-0.845c0,-0.341 0.005,-0.458 0.03,-0.589c0.082,-0.444 0.225,-0.699 0.547,-0.97c0.338,-0.283 0.712,-0.464 1.138,-0.553c0.211,-0.043 0.23,-0.047 0.335,-0.05c0.08,-0.002 0.088,0.002 0.105,0.043zM9.948,8.998c0.017,0.015 0.027,0.058 0.028,0.115c0,0.05 0.007,0.091 0.015,0.091c0.007,0 0.012,0.037 0.012,0.083c0,0.045 -0.007,0.083 -0.015,0.083c-0.007,0 -0.01,0.018 -0.007,0.038c0.005,0.023 -0.003,0.052 -0.018,0.067c-0.015,0.013 -0.027,0.033 -0.027,0.043c0,0.01 -0.007,0.018 -0.017,0.018c-0.008,0 -0.017,0.01 -0.017,0.023c0,0.013 -0.012,0.027 -0.025,0.033c-0.013,0.005 -0.025,0.02 -0.025,0.033c0,0.013 -0.01,0.032 -0.023,0.038c-0.022,0.013 -0.143,0.361 -0.143,0.413c0,0.013 -0.005,0.025 -0.012,0.025c-0.008,0 -0.013,0.025 -0.015,0.053c0,0.03 -0.01,0.145 -0.022,0.255c-0.052,0.486 0.083,1.158 0.334,1.664c0.288,0.578 0.782,0.983 1.336,1.097l0.1,0.022l0.005,0.065c0.025,0.354 0.175,0.795 0.378,1.113c0.208,0.326 0.273,0.519 0.225,0.666c-0.035,0.108 -0.13,0.178 -0.591,0.441c-0.975,0.557 -1.657,0.968 -1.98,1.196c-0.091,0.065 -0.301,0.188 -0.464,0.271c-0.426,0.22 -0.557,0.353 -0.586,0.596c-0.02,0.171 0.065,0.512 0.253,1.023c0.06,0.165 0.153,0.424 0.206,0.576c0.053,0.153 0.168,0.459 0.255,0.682c0.226,0.582 0.285,0.779 0.393,1.301c0.073,0.348 0.201,1.201 0.201,1.329c0,0.095 -0.473,-0.418 -0.87,-0.944c-0.85,-1.125 -1.434,-2.43 -1.707,-3.814c-0.07,-0.354 -0.123,-0.717 -0.112,-0.764c0.007,-0.025 0.003,-0.04 -0.008,-0.04c-0.013,0 -0.017,-0.025 -0.01,-0.083c0.007,-0.055 0.003,-0.083 -0.008,-0.083c-0.011,0 -0.015,-0.035 -0.007,-0.108c0.008,-0.076 0.005,-0.108 -0.008,-0.108c-0.013,0 -0.015,-0.043 -0.007,-0.158c0.008,-0.11 0.007,-0.158 -0.007,-0.158c-0.014,0 -0.018,-0.11 -0.018,-0.358c0,-0.248 0.005,-0.358 0.018,-0.358c0.013,0 0.015,-0.048 0.007,-0.158c-0.008,-0.115 -0.007,-0.158 0.007,-0.158c0.014,0 0.017,-0.032 0.008,-0.108c-0.008,-0.073 -0.005,-0.108 0.007,-0.108c0.012,0 0.015,-0.028 0.008,-0.083c-0.007,-0.052 -0.003,-0.083 0.007,-0.083c0.012,0 0.015,-0.03 0.008,-0.075c-0.003,-0.042 0,-0.075 0.008,-0.075c0.008,0 0.012,-0.027 0.008,-0.058c-0.003,-0.032 0,-0.058 0.008,-0.058c0.008,0 0.012,-0.027 0.008,-0.058c-0.003,-0.032 0,-0.058 0.008,-0.058c0.008,0 0.013,-0.023 0.008,-0.05c-0.003,-0.028 0,-0.05 0.007,-0.05c0.008,0 0.017,-0.043 0.018,-0.095c0.002,-0.053 0.01,-0.098 0.018,-0.101c0.008,-0.002 0.012,-0.023 0.007,-0.045c-0.003,-0.023 0,-0.042 0.007,-0.042c0.008,0 0.017,-0.035 0.017,-0.078c0.002,-0.043 0.01,-0.082 0.02,-0.085c0.01,-0.003 0.015,-0.015 0.01,-0.027c-0.023,-0.058 0.285,-1.138 0.328,-1.155c0.008,-0.003 0.015,-0.022 0.015,-0.04c0,-0.048 0.068,-0.23 0.085,-0.23c0.008,0 0.015,-0.018 0.015,-0.042c0,-0.024 0.008,-0.042 0.017,-0.042c0.01,0 0.017,-0.018 0.017,-0.042c0,-0.024 0.008,-0.042 0.017,-0.042c0.01,0 0.017,-0.018 0.017,-0.04c0,-0.023 0.012,-0.052 0.025,-0.067c0.013,-0.013 0.025,-0.033 0.025,-0.045c0,-0.035 0.04,-0.131 0.053,-0.131c0.007,0 0.013,-0.012 0.013,-0.025c0,-0.032 0.087,-0.213 0.108,-0.228c0.01,-0.007 0.035,-0.052 0.057,-0.1c0.1,-0.23 0.125,-0.278 0.147,-0.286c0.012,-0.005 0.022,-0.025 0.022,-0.043c0,-0.018 0.015,-0.047 0.033,-0.062c0.018,-0.017 0.033,-0.042 0.033,-0.058c0,-0.015 0.013,-0.042 0.032,-0.058c0.017,-0.017 0.035,-0.05 0.042,-0.076c0.005,-0.025 0.018,-0.045 0.027,-0.045c0.01,0 0.017,-0.012 0.017,-0.025c0,-0.013 0.007,-0.025 0.015,-0.025c0.008,0 0.02,-0.018 0.025,-0.042c0.007,-0.023 0.018,-0.042 0.027,-0.042c0.01,0 0.017,-0.012 0.017,-0.025c0,-0.013 0.007,-0.025 0.015,-0.025c0.008,0 0.02,-0.018 0.025,-0.042c0.007,-0.023 0.018,-0.042 0.027,-0.042c0.01,0 0.017,-0.012 0.017,-0.025c0,-0.013 0.008,-0.025 0.017,-0.025c0.01,0 0.017,-0.012 0.017,-0.025c0,-0.013 0.008,-0.025 0.017,-0.025c0.01,0 0.017,-0.012 0.017,-0.025c0,-0.013 0.008,-0.025 0.017,-0.025c0.01,0 0.017,-0.012 0.017,-0.025c0,-0.015 0.012,-0.03 0.025,-0.035c0.013,-0.007 0.025,-0.02 0.025,-0.033c0,-0.013 0.008,-0.023 0.017,-0.023c0.01,0 0.017,-0.01 0.017,-0.023c0,-0.013 0.012,-0.027 0.025,-0.033c0.013,-0.005 0.025,-0.02 0.025,-0.035c0,-0.013 0.008,-0.025 0.017,-0.025c0.01,0 0.017,-0.01 0.017,-0.023c0,-0.013 0.012,-0.027 0.025,-0.033c0.013,-0.005 0.025,-0.02 0.025,-0.033c0,-0.012 0.012,-0.027 0.025,-0.033c0.013,-0.005 0.025,-0.02 0.025,-0.033c0,-0.012 0.012,-0.027 0.025,-0.033c0.013,-0.005 0.025,-0.02 0.025,-0.033c0,-0.015 0.015,-0.033 0.033,-0.043c0.018,-0.01 0.033,-0.027 0.033,-0.038c0,-0.011 0.015,-0.03 0.033,-0.042c0.018,-0.012 0.033,-0.03 0.033,-0.042c0,-0.012 0.015,-0.03 0.033,-0.042c0.018,-0.012 0.033,-0.03 0.033,-0.042c0,-0.012 0.023,-0.038 0.05,-0.058c0.028,-0.022 0.05,-0.046 0.05,-0.058c0,-0.012 0.027,-0.042 0.058,-0.067c0.032,-0.025 0.058,-0.055 0.058,-0.065c0,-0.01 0.045,-0.06 0.1,-0.108c0.055,-0.05 0.1,-0.098 0.1,-0.107c0,-0.023 0.321,-0.348 0.343,-0.348c0.012,0 0.023,-0.015 0.028,-0.033c0.01,-0.04 0.038,-0.043 0.073,-0.007zM22.807,9.715c1.236,1.444 1.979,3.175 2.198,5.13c0.035,0.326 0.05,1.285 0.025,1.657c-0.083,1.198 -0.383,2.336 -0.895,3.418c-0.098,0.205 -0.323,0.624 -0.409,0.759l-0.043,0.068l-0.161,0.022c-0.416,0.052 -1.018,0.255 -1.554,0.524c-0.161,0.081 -0.183,0.087 -0.183,0.05c0,-0.013 0.055,-0.176 0.123,-0.361c0.255,-0.699 0.504,-1.451 0.777,-2.343c0.083,-0.27 0.218,-0.704 0.3,-0.965c0.181,-0.577 0.22,-0.749 0.211,-0.965c-0.01,-0.323 -0.11,-0.434 -1.243,-1.408c-0.314,-0.27 -0.564,-0.518 -0.609,-0.607c-0.065,-0.125 -0.005,-0.311 0.226,-0.702c0.175,-0.294 0.268,-0.499 0.379,-0.837c0.25,-0.749 0.429,-1.569 0.524,-2.395c0.037,-0.305 0.076,-0.839 0.076,-1.007c0,-0.175 0.015,-0.266 0.041,-0.266c0.01,0 0.108,0.103 0.216,0.228zM21.043,15.262c0.055,0.047 0.291,0.271 0.524,0.499c0.233,0.228 0.508,0.478 0.607,0.556c0.268,0.21 0.398,0.341 0.459,0.468c0.053,0.106 0.053,0.108 0.043,0.294c-0.012,0.193 -0.07,0.488 -0.203,1.04c-0.171,0.701 -0.449,1.529 -0.86,2.558c-0.268,0.669 -0.328,0.76 -0.534,0.82c-0.17,0.048 -0.206,0.053 -0.652,0.07c-0.411,0.017 -0.549,0.037 -0.674,0.1c-0.078,0.04 -0.1,0.042 -0.1,0.007c0,-0.035 0.118,-0.236 0.749,-1.271c0.492,-0.807 0.854,-1.413 0.92,-1.543c0.025,-0.045 0.023,-0.053 -0.005,-0.098c-0.017,-0.027 -0.078,-0.103 -0.138,-0.17c-0.108,-0.122 -0.162,-0.208 -0.162,-0.261c0,-0.015 0.027,-0.105 0.057,-0.196c0.235,-0.691 0.115,-1.819 -0.233,-2.207c-0.076,-0.085 -0.21,-0.168 -0.27,-0.168c-0.045,0 -0.17,-0.087 -0.17,-0.118c0,-0.017 0.073,-0.085 0.171,-0.161c0.093,-0.072 0.203,-0.17 0.245,-0.216c0.042,-0.045 0.087,-0.083 0.1,-0.085c0.013,0 0.07,0.037 0.125,0.083zM12.377,15.763c0.041,0.04 0.175,0.183 0.293,0.321c0.118,0.137 0.258,0.298 0.309,0.356c0.17,0.195 0.552,0.424 1.401,0.84l0.524,0.258l0.022,0.135c0.052,0.334 0.356,1.391 0.476,1.642c0.158,0.336 0.348,0.434 0.637,0.329c0.063,-0.023 0.125,-0.042 0.135,-0.042c0.058,0 -0.013,0.16 -0.156,0.349c-0.188,0.25 -0.228,0.409 -0.138,0.546c0.048,0.073 0.198,0.178 0.404,0.283c0.506,0.26 1.118,0.552 1.419,0.677c0.193,0.08 0.353,0.156 0.353,0.166c0,0.015 -0.073,0.023 -0.261,0.032c-1.396,0.058 -2.22,0.123 -3.523,0.278c-0.368,0.043 -0.591,0.063 -0.606,0.053c-0.038,-0.023 -0.083,-0.16 -0.103,-0.308c-0.028,-0.23 -0.02,-0.958 0.017,-1.428c0.018,-0.233 0.033,-0.489 0.033,-0.567c0,-0.419 -0.201,-0.416 -0.278,0.005c-0.027,0.155 -0.023,0.276 0.028,0.835c0.037,0.378 0.043,0.835 0.017,1.008c-0.01,0.06 -0.032,0.158 -0.052,0.22c-0.03,0.105 -0.037,0.113 -0.078,0.113c-0.068,-0.002 -0.173,-0.055 -0.354,-0.183c-0.215,-0.151 -0.298,-0.193 -0.316,-0.163c-0.04,0.062 -0.002,0.166 0.107,0.293c0.105,0.12 0.121,0.225 0.046,0.308c-0.038,0.047 -0.07,0.058 -0.205,0.087c-0.218,0.047 -0.313,0.116 -0.313,0.233c0,0.04 0.003,0.042 0.105,0.042c0.057,0 0.246,-0.008 0.423,-0.02c0.319,-0.018 0.477,-0.01 0.639,0.037l0.06,0.017l0.012,0.138c0.037,0.434 0.173,1.564 0.311,2.544c0.053,0.391 0.098,0.719 0.098,0.727c0,0.04 -0.418,0 -0.765,-0.073c-0.559,-0.118 -1.015,-0.305 -1.955,-0.799c-0.301,-0.158 -0.607,-0.316 -0.677,-0.351l-0.13,-0.063v-0.151c0,-0.346 -0.067,-1.27 -0.135,-1.889c-0.191,-1.741 -0.584,-3.33 -1.132,-4.579c-0.063,-0.143 -0.115,-0.271 -0.115,-0.283c0,-0.013 0.155,-0.14 0.344,-0.281c1.102,-0.827 1.845,-1.291 2.643,-1.649c0.138,-0.062 0.275,-0.111 0.305,-0.113c0.042,0 0.073,0.017 0.132,0.07zM20.531,16.283c0.17,0.087 0.29,0.476 0.341,1.101c0.027,0.341 -0.022,0.674 -0.116,0.802l-0.03,0.038l-0.273,-0.018c-0.441,-0.028 -1,-0.111 -1.263,-0.188l-0.073,-0.02l0.002,-0.258c0.002,-0.141 0.003,-0.263 0.003,-0.27c0,-0.017 0.115,-0.073 0.175,-0.087c0.065,-0.013 0.253,-0.032 0.313,-0.03c0.025,0.002 0.045,-0.005 0.045,-0.012c0,-0.017 -0.181,-0.07 -0.275,-0.078c-0.037,-0.005 -0.076,-0.012 -0.088,-0.015c-0.01,-0.003 -0.055,0 -0.098,0.007c-0.103,0.02 -0.128,0.003 -0.155,-0.093c-0.012,-0.043 -0.037,-0.108 -0.053,-0.145c-0.027,-0.053 -0.028,-0.067 -0.01,-0.078c0.012,-0.008 0.028,-0.015 0.037,-0.015c0.007,0 0.145,-0.086 0.308,-0.195c0.488,-0.321 0.697,-0.436 0.854,-0.462c0.03,-0.007 0.055,-0.012 0.057,-0.013c0.017,-0.017 0.26,0.007 0.301,0.028zM19.271,16.284c0,0.013 -0.015,0.032 -0.032,0.042c-0.018,0.008 -0.17,0.125 -0.336,0.258l-0.305,0.241l-0.093,0.003c-0.356,0.012 -0.627,-0.032 -0.837,-0.133c-0.161,-0.08 -0.328,-0.195 -0.328,-0.228c0,-0.033 0.075,-0.048 0.13,-0.027c0.083,0.033 0.276,0.068 0.393,0.068c0.161,0 0.423,-0.042 0.75,-0.12c0.273,-0.065 0.567,-0.125 0.629,-0.128c0.015,-0.002 0.028,0.01 0.028,0.023zM13.785,16.366c0.121,0.04 0.334,0.072 0.681,0.101c0.473,0.038 0.463,0.037 0.463,0.095c0,0.027 -0.015,0.107 -0.032,0.176c-0.018,0.072 -0.038,0.168 -0.045,0.215c-0.01,0.082 -0.015,0.088 -0.055,0.088c-0.076,0 -0.373,-0.08 -0.559,-0.148c-0.451,-0.17 -0.721,-0.379 -0.682,-0.531c0.02,-0.078 0.038,-0.088 0.097,-0.053c0.03,0.017 0.09,0.042 0.133,0.057zM15.822,16.424c0.018,0.008 0.037,0.013 0.042,0.01c0.023,-0.023 0.677,0.193 0.904,0.299c0.349,0.165 0.441,0.213 0.626,0.335c0.105,0.07 0.283,0.138 0.381,0.148c0.023,0.002 0.05,0.005 0.06,0.005c0.01,0.002 0.018,0.033 0.02,0.068c0.003,0.062 -0.002,0.068 -0.073,0.108c-0.071,0.04 -0.228,0.095 -0.253,0.09c-0.012,-0.002 -0.06,0.01 -0.25,0.063c-0.088,0.025 -0.108,0.067 -0.023,0.05c0.097,-0.02 0.582,0.117 0.632,0.178c0.01,0.012 0.013,0.085 0.008,0.186l-0.01,0.168l-0.068,0.048c-0.037,0.028 -0.195,0.155 -0.351,0.285c-0.155,0.128 -0.343,0.278 -0.416,0.329c-0.309,0.223 -0.968,0.476 -1.241,0.476c-0.08,0 -0.098,-0.007 -0.138,-0.048c-0.027,-0.028 -0.05,-0.067 -0.053,-0.088c-0.005,-0.035 -0.107,-0.326 -0.141,-0.404c-0.072,-0.162 -0.191,-0.524 -0.208,-0.629c-0.005,-0.03 -0.012,-0.072 -0.017,-0.095c-0.038,-0.191 -0.057,-0.686 -0.033,-0.948c0.005,-0.068 0.01,-0.136 0.012,-0.15c0.01,-0.123 0.105,-0.353 0.173,-0.416c0.07,-0.065 0.153,-0.093 0.275,-0.09c0.062,0.002 0.126,0.012 0.145,0.022zM18.569,17.141c0.091,0.04 0.111,0.062 0.161,0.17c0.062,0.132 0.058,0.309 -0.007,0.431c-0.067,0.13 -0.163,0.18 -0.338,0.181c-0.203,0 -0.198,0.003 -0.251,-0.24c-0.027,-0.115 -0.042,-0.218 -0.037,-0.226c0.005,-0.01 0.002,-0.017 -0.007,-0.017c-0.012,0 -0.018,-0.042 -0.018,-0.105c0,-0.097 0.003,-0.105 0.047,-0.127c0.21,-0.105 0.324,-0.121 0.449,-0.068zM18.932,18.188c0.038,0.018 0.13,0.073 0.203,0.125c0.165,0.115 0.291,0.175 0.401,0.188l0.085,0.01v0.1c0,0.056 -0.007,0.185 -0.017,0.285c-0.008,0.102 -0.023,0.368 -0.033,0.592c-0.025,0.567 -0.053,0.845 -0.135,1.348c-0.035,0.223 -0.088,0.408 -0.116,0.413c-0.032,0.005 -0.225,-0.388 -0.506,-1.037c-0.354,-0.817 -0.552,-1.193 -0.8,-1.527c-0.06,-0.082 -0.106,-0.158 -0.103,-0.17c0.003,-0.013 0.043,-0.068 0.088,-0.125l0.083,-0.102l0.075,0.012c0.123,0.018 0.173,0.01 0.353,-0.068c0.196,-0.085 0.306,-0.096 0.423,-0.043zM20.478,18.481c0.125,0.033 0.271,0.111 0.369,0.198c0.1,0.088 0.205,0.221 0.205,0.26c0,0.033 -0.496,0.895 -0.79,1.374c-0.281,0.458 -0.666,1.008 -0.717,1.028c-0.033,0.013 -0.03,-0.01 0.027,-0.228c0.12,-0.468 0.216,-1.157 0.275,-1.959c0.013,-0.188 0.025,-0.403 0.025,-0.479c0,-0.135 0.002,-0.138 0.047,-0.155c0.176,-0.068 0.393,-0.083 0.561,-0.04zM17.71,18.9c0.359,0.508 0.581,0.935 1.038,2.022c0.095,0.228 0.173,0.424 0.173,0.438c0,0.04 -0.048,0.03 -0.336,-0.068c-0.516,-0.178 -0.995,-0.381 -1.563,-0.664c-0.398,-0.198 -0.78,-0.406 -0.78,-0.422c0,-0.007 0.015,-0.062 0.035,-0.12c0.09,-0.278 0.283,-0.547 0.554,-0.776c0.16,-0.135 0.734,-0.536 0.769,-0.537c0.01,0 0.06,0.058 0.11,0.128zM23.987,21.283c0.171,0.083 0.344,0.255 0.426,0.424c0.105,0.216 0.216,0.592 0.378,1.258c0.067,0.276 0.075,0.334 0.083,0.566c0.007,0.225 0.003,0.276 -0.027,0.404c-0.087,0.366 -0.296,0.647 -0.579,0.78c-0.278,0.131 -0.979,0.185 -1.338,0.103c-0.092,-0.02 -0.115,-0.032 -0.115,-0.057c0,-0.053 0.213,-0.12 0.612,-0.193c0.321,-0.058 0.468,-0.092 0.478,-0.108c0.008,-0.013 -0.023,-0.023 -0.2,-0.067c-0.105,-0.027 -0.636,-0.027 -0.94,-0.002c-0.123,0.012 -0.346,0.025 -0.494,0.03l-0.268,0.012l-0.01,-0.09c-0.005,-0.05 -0.033,-0.323 -0.062,-0.606c-0.072,-0.732 -0.146,-1.208 -0.241,-1.539l-0.027,-0.091l0.072,-0.062c0.138,-0.118 0.456,-0.26 1.027,-0.453c0.323,-0.11 0.531,-0.195 0.661,-0.271c0.153,-0.09 0.203,-0.105 0.333,-0.1c0.09,0.005 0.143,0.018 0.231,0.06zM21.218,22.142c0.063,0.038 0.22,0.463 0.291,0.782c0.081,0.366 0.15,1.057 0.138,1.403l-0.005,0.171l-0.216,0.073c-0.118,0.04 -0.263,0.078 -0.319,0.083l-0.102,0.012l-0.01,-0.072c-0.005,-0.04 -0.022,-0.19 -0.035,-0.331c-0.015,-0.141 -0.072,-0.546 -0.127,-0.899c-0.1,-0.647 -0.165,-1.117 -0.165,-1.19c0,-0.038 0.007,-0.04 0.13,-0.047c0.171,-0.01 0.394,-0.002 0.419,0.013zM17.865,22.15c0.381,0.023 1.067,0.102 1.102,0.125c0.008,0.005 0.053,0.378 0.07,0.574c0.023,0.273 0.032,0.426 0.06,1.123c0.025,0.562 0.032,0.656 0.083,1.198c0.032,0.333 0.055,0.769 0.075,1.423c0.03,0.982 0.067,1.464 0.143,1.92c0.022,0.136 0.038,0.25 0.037,0.251c-0.017,0.01 -0.285,0.078 -0.446,0.115c-0.478,0.105 -0.945,0.15 -1.523,0.15c-0.671,-0.002 -1.181,-0.052 -1.789,-0.173c-0.275,-0.055 -0.724,-0.168 -0.74,-0.186c-0.003,-0.003 -0.053,-0.163 -0.113,-0.356c-0.428,-1.38 -0.727,-2.737 -0.959,-4.341c-0.093,-0.637 -0.188,-1.459 -0.173,-1.473c0.018,-0.017 0.88,-0.156 1.27,-0.208c0.537,-0.068 1.142,-0.121 1.672,-0.146c0.263,-0.013 0.994,-0.01 1.231,0.005zM20.123,22.258c0.09,0.334 0.15,0.819 0.23,1.864c0.028,0.356 0.057,0.709 0.065,0.782c0.01,0.087 0.01,0.136 -0.002,0.143c-0.017,0.01 -0.479,0.095 -0.79,0.145c-0.125,0.02 -0.188,0.023 -0.188,0.013c0,-0.01 -0.012,-0.165 -0.025,-0.343c-0.055,-0.73 -0.076,-1.208 -0.087,-1.877c-0.005,-0.386 -0.005,-0.702 0,-0.702c0.005,0 0.057,-0.012 0.113,-0.027c0.125,-0.032 0.353,-0.053 0.537,-0.05c0.133,0.002 0.133,0.002 0.146,0.052zM20.08,25.588c0.03,0.008 0.038,0.027 0.047,0.111c0.007,0.056 0.053,0.298 0.103,0.536c0.125,0.596 0.158,0.809 0.168,1.098l0.01,0.25l-0.19,0.062c-0.105,0.033 -0.226,0.068 -0.273,0.078c-0.091,0.018 -0.374,0.043 -0.374,0.033c0,-0.003 -0.015,-0.25 -0.035,-0.547c-0.018,-0.298 -0.038,-0.764 -0.043,-1.037l-0.01,-0.494h0.053c0.03,0 0.127,-0.018 0.215,-0.04c0.088,-0.023 0.185,-0.045 0.211,-0.048c0.028,-0.003 0.058,-0.008 0.066,-0.008c0.01,-0.002 0.033,0.002 0.052,0.007zM15.91,6.154c-0.14,0.023 -0.336,0.111 -0.524,0.236c-0.158,0.103 -0.414,0.363 -0.521,0.526c-0.143,0.218 -0.236,0.509 -0.211,0.659c0.012,0.067 0.088,0.165 0.128,0.165c0.012,0 0.052,-0.062 0.088,-0.138c0.142,-0.29 0.358,-0.569 0.556,-0.716c0.115,-0.085 0.295,-0.166 0.446,-0.203c0.095,-0.023 0.167,-0.027 0.358,-0.02c0.13,0.005 0.255,0.013 0.276,0.02c0.032,0.01 0.04,0.003 0.062,-0.048c0.04,-0.093 0.032,-0.163 -0.028,-0.253c-0.117,-0.173 -0.381,-0.27 -0.629,-0.228zM21.285,7.951c0,0.226 0.055,0.449 0.203,0.819c0.045,0.113 0.08,0.221 0.076,0.241c-0.008,0.053 -0.158,0.09 -0.451,0.11c-0.258,0.018 -0.283,0.022 -0.406,0.053c-0.065,0.017 -0.072,0.023 -0.072,0.068c0,0.16 0.115,0.306 0.276,0.354c0.261,0.075 0.709,-0.062 0.945,-0.286c0.145,-0.14 0.143,-0.13 0.025,-0.326c-0.096,-0.158 -0.289,-0.544 -0.491,-0.982c-0.045,-0.1 -0.087,-0.18 -0.093,-0.18c-0.008,0 -0.013,0.058 -0.013,0.128zM17.033,7.921c-0.04,0.235 0.108,0.689 0.374,1.145c0.06,0.101 0.1,0.188 0.097,0.21c-0.012,0.086 -0.268,0.158 -0.486,0.136c-0.065,-0.007 -0.22,-0.03 -0.343,-0.052c-0.3,-0.053 -0.34,-0.053 -0.364,0.005c-0.047,0.113 -0.05,0.156 -0.023,0.223c0.073,0.186 0.369,0.298 0.79,0.298c0.348,0 0.483,-0.045 0.679,-0.226c0.082,-0.077 0.105,-0.11 0.126,-0.186c0.03,-0.103 0.023,-0.206 -0.02,-0.29c-0.015,-0.03 -0.112,-0.14 -0.213,-0.246c-0.21,-0.22 -0.255,-0.293 -0.419,-0.679c-0.062,-0.145 -0.128,-0.295 -0.148,-0.336l-0.038,-0.073l-0.012,0.072zM19.185,8.224c-0.025,0.013 -0.03,0.04 -0.03,0.138c0,0.456 0.265,1.055 0.729,1.657c0.12,0.153 0.523,0.637 0.687,0.824c0.166,0.19 0.223,0.351 0.181,0.527c-0.027,0.113 -0.093,0.245 -0.13,0.258c-0.015,0.005 -0.185,0.083 -0.378,0.173c-0.446,0.206 -0.596,0.268 -0.782,0.321c-0.221,0.062 -0.388,0.083 -0.567,0.072c-0.29,-0.017 -0.349,-0.073 -0.438,-0.418c-0.028,-0.108 -0.052,-0.201 -0.052,-0.203c0,-0.003 -0.006,-0.007 -0.017,-0.007c-0.028,0 -0.098,0.16 -0.117,0.273c-0.035,0.196 0.035,0.443 0.171,0.601l0.058,0.067l0.251,0.005c0.679,0.017 1.306,-0.186 2.072,-0.667l0.248,-0.156l0.028,-0.115c0.015,-0.063 0.047,-0.168 0.07,-0.231c0.023,-0.065 0.052,-0.16 0.062,-0.211c0.033,-0.16 0.02,-0.185 -0.261,-0.461c-0.724,-0.709 -1.513,-1.805 -1.607,-2.236c-0.018,-0.081 -0.043,-0.146 -0.072,-0.178c-0.043,-0.053 -0.063,-0.058 -0.108,-0.032zM10.973,10.034c-0.16,0.055 -0.28,0.185 -0.343,0.374c-0.04,0.117 -0.037,0.123 0.035,0.058c0.1,-0.097 0.136,-0.115 0.231,-0.115c0.047,0 0.092,0.007 0.097,0.017c0.005,0.008 -0.01,0.078 -0.035,0.153c-0.037,0.115 -0.046,0.176 -0.053,0.364c-0.008,0.261 0.018,0.429 0.095,0.589c0.098,0.205 0.096,0.208 0.105,-0.226c0.008,-0.339 0.013,-0.403 0.045,-0.501c0.058,-0.181 0.171,-0.258 0.309,-0.213c0.083,0.028 0.148,0.112 0.261,0.343c0.057,0.115 0.126,0.235 0.156,0.27l0.053,0.062l0.012,-0.115c0.052,-0.478 -0.22,-0.93 -0.637,-1.058c-0.131,-0.04 -0.218,-0.042 -0.331,-0.002zM21.193,12.342c-0.634,0.336 -0.855,0.423 -1.213,0.481c-0.081,0.013 -0.155,0.033 -0.163,0.045c-0.015,0.025 -0.018,0.426 -0.003,0.516c0.01,0.062 0.013,0.063 0.08,0.063c0.113,0 0.363,-0.06 0.516,-0.121c0.384,-0.156 0.762,-0.534 1.033,-1.032c0.033,-0.062 0.058,-0.111 0.055,-0.111c-0.002,0 -0.14,0.072 -0.305,0.16zM17.068,12.667c0.115,0.213 0.419,0.446 0.764,0.579c0.414,0.163 1.065,0.264 1.572,0.248l0.158,-0.005l-0.003,-0.225c-0.002,-0.123 -0.01,-0.258 -0.017,-0.3l-0.015,-0.075l-0.572,-0.01c-0.942,-0.017 -1.426,-0.091 -1.904,-0.29c-0.027,-0.012 -0.025,-0.002 0.017,0.077zM16.714,13.166c-0.085,0.025 -0.096,0.067 -0.04,0.141c0.027,0.037 0.087,0.102 0.135,0.148c0.047,0.045 0.153,0.178 0.236,0.294c0.083,0.116 0.196,0.266 0.253,0.333c0.294,0.344 0.619,0.463 1.266,0.463c0.531,0 1.018,-0.098 1.185,-0.24c0.052,-0.043 0.171,-0.21 0.171,-0.238c0,-0.008 -0.271,-0.012 -0.604,-0.008c-0.995,0.012 -1.409,-0.045 -1.817,-0.245c-0.276,-0.136 -0.469,-0.321 -0.579,-0.554c-0.048,-0.103 -0.058,-0.113 -0.103,-0.111c-0.027,0 -0.075,0.008 -0.103,0.017zM18.845,18.77c-0.1,0.06 -0.113,0.206 -0.028,0.291c0.123,0.123 0.321,0.033 0.321,-0.146c0,-0.05 -0.012,-0.075 -0.057,-0.12c-0.067,-0.067 -0.153,-0.076 -0.236,-0.025zM19.097,19.651c-0.09,0.03 -0.141,0.1 -0.141,0.191c0,0.052 0.012,0.076 0.057,0.122c0.048,0.048 0.068,0.057 0.133,0.057c0.06,0 0.087,-0.01 0.13,-0.048c0.048,-0.043 0.055,-0.058 0.055,-0.133c0,-0.072 -0.006,-0.092 -0.05,-0.133c-0.052,-0.05 -0.126,-0.073 -0.183,-0.055zM23.232,22.017c-0.409,0.073 -0.742,0.24 -0.932,0.466l-0.07,0.083h0.078c0.175,0 0.358,-0.076 0.757,-0.316c0.241,-0.145 0.384,-0.22 0.483,-0.25c0.083,-0.027 -0.138,-0.015 -0.316,0.017zM22.887,22.715c-0.116,0.022 -0.253,0.076 -0.313,0.125c-0.042,0.035 -0.047,0.045 -0.025,0.06c0.037,0.025 0.587,0.005 0.973,-0.035c0.175,-0.018 0.331,-0.033 0.349,-0.035c0.055,-0.003 -0.14,-0.06 -0.308,-0.088c-0.19,-0.033 -0.558,-0.048 -0.677,-0.027zM22.737,23.406c-0.093,0.025 -0.213,0.081 -0.228,0.105c-0.015,0.024 0.235,0.037 0.913,0.047c0.567,0.006 0.627,0.005 0.579,-0.017c-0.078,-0.037 -0.371,-0.106 -0.563,-0.135c-0.21,-0.032 -0.586,-0.032 -0.702,0z"></path></g></g></svg>