<?xml version="1.0" encoding="iso-8859-1"?>
<!-- Generator: Adobe Illustrator 19.0.0, SVG Export Plug-In . SVG Version: 6.00 Build 0)  -->
<svg xmlns="http://www.w3.org/2000/svg" xmlns:xlink="http://www.w3.org/1999/xlink" version="1.1" id="Layer_1" x="0px" y="0px" viewBox="0 0 512 512" style="enable-background:new 0 0 512 512;" xml:space="preserve">
<path style="fill:#8CE16E;" d="M486.881,401.37c-4.376,0-8.755-1.671-12.092-5.011l-51.307-51.307  c-6.681-6.681-6.681-17.503,0-24.184c6.672-6.681,17.512-6.681,24.184,0l51.307,51.307c6.681,6.681,6.681,17.503,0,24.184  C495.636,399.7,491.257,401.37,486.881,401.37z"/>
<path style="fill:#E4EAF8;" d="M418.472,418.472H25.119c-9.446,0-17.102-7.656-17.102-17.102v-17.102h419.006  c4.722,0,8.551,3.829,8.551,8.551v8.551C435.574,410.815,427.918,418.472,418.472,418.472z"/>
<path style="fill:#707487;" d="M418.472,384.267H25.119V127.733c0-18.891,15.314-34.205,34.205-34.205h324.944  c18.891,0,34.205,15.314,34.205,34.205V384.267z"/>
<rect x="59.324" y="127.733" style="fill:#00C3FF;" width="324.944" height="222.33"/>
<path style="fill:#7DD7FF;" d="M256,324.409h-68.409c-47.227,0-85.511-38.285-85.511-85.511l0,0  c0-47.227,38.285-85.511,85.511-85.511H256c47.227,0,85.511,38.285,85.511,85.511l0,0C341.511,286.125,303.227,324.409,256,324.409z  "/>
<circle style="fill:#FFFFFF;" cx="341.511" cy="238.898" r="76.96"/>
<path style="fill:#8CE16E;" d="M358.614,281.653h-34.205c-4.722,0-8.551-3.829-8.551-8.551v-25.653c0-4.722,3.829-8.551,8.551-8.551  h34.205c4.722,0,8.551,3.829,8.551,8.551v25.653C367.165,277.825,363.336,281.653,358.614,281.653z"/>
<path d="M504.642,366.507l-51.304-51.303c-4.742-4.748-11.05-7.363-17.764-7.363c-3.942,0-7.742,0.909-11.169,2.612l-17.433-17.434  c12.183-14.709,19.516-33.574,19.516-54.122c0-46.857-38.121-84.977-84.977-84.977s-84.977,38.12-84.977,84.977  s38.121,84.977,84.977,84.977c20.547,0,39.413-7.333,54.123-19.516l17.435,17.435c-1.706,3.428-2.615,7.227-2.615,11.167  c0,6.707,2.613,13.016,7.358,17.761l51.304,51.303c4.742,4.747,11.05,7.363,17.764,7.363s13.022-2.615,17.761-7.358  c4.745-4.745,7.358-11.053,7.358-17.761C512,377.56,509.387,371.251,504.642,366.507z M272.568,238.898  c0-38.015,30.928-68.944,68.944-68.944s68.944,30.928,68.944,68.944s-30.928,68.944-68.944,68.944S272.568,276.913,272.568,238.898z   M493.301,390.694c-1.712,1.715-3.992,2.658-6.42,2.658s-4.707-0.945-6.423-2.663l-51.307-51.307  c-3.541-3.541-3.541-9.304,0.003-12.849c1.712-1.715,3.992-2.658,6.42-2.658s4.707,0.945,6.423,2.663l51.307,51.307  C496.846,381.387,496.846,387.148,493.301,390.694z"/>
<path d="M340.981,127.733c0-4.428-3.589-8.017-8.017-8.017H59.324c-4.427,0-8.017,3.588-8.017,8.017v222.33  c0,4.428,3.589,8.017,8.017,8.017h324.944c4.427,0,8.017-3.588,8.017-8.017v-8.551c0-4.428-3.589-8.017-8.017-8.017  c-4.427,0-8.017,3.588-8.017,8.017v0.534H67.34V135.749h265.624C337.392,135.749,340.981,132.161,340.981,127.733z"/>
<path d="M384.267,144.301c4.427,0,8.017-3.588,8.017-8.017v-8.551c0-4.428-3.589-8.017-8.017-8.017h-17.098  c-4.427,0-8.017,3.588-8.017,8.017c0,4.428,3.589,8.017,8.017,8.017h9.081v0.534C376.251,140.712,379.84,144.301,384.267,144.301z"/>
<path d="M435.574,393.353c-4.427,0-8.017,3.588-8.017,8.017c0,5.01-4.076,9.086-9.086,9.086H25.119c-5.01,0-9.086-4.076-9.086-9.086  v-9.086h393.887c4.427,0,8.017-3.588,8.017-8.017s-3.589-8.017-8.017-8.017H33.136V127.733c0-14.441,11.748-26.188,26.188-26.188  h324.944c14.44,0,26.188,11.747,26.188,26.188v34.207c0,4.428,3.589,8.017,8.017,8.017c4.427,0,8.017-3.588,8.017-8.017v-34.207  c0-23.281-18.941-42.221-42.221-42.221H59.324c-23.281,0-42.221,18.941-42.221,42.221v248.518H8.017  c-4.427,0-8.017,3.588-8.017,8.017v17.102c0,13.851,11.268,25.119,25.119,25.119h393.353c13.851,0,25.119-11.268,25.119-25.119  C443.591,396.941,440.001,393.353,435.574,393.353z"/>
<path d="M358.614,230.881h-26.188v-17.637c0-5.01,4.076-9.086,9.086-9.086c5.01,0,9.086,4.076,9.086,9.086  c0,4.428,3.589,8.017,8.017,8.017c4.427,0,8.017-3.588,8.017-8.017c0-13.851-11.268-25.119-25.119-25.119  c-13.851,0-25.119,11.268-25.119,25.119v19.716c-5.093,2.829-8.551,8.26-8.551,14.489v25.653c0,9.136,7.432,16.568,16.568,16.568  h34.205c9.136,0,16.568-7.432,16.568-16.568v-25.653C375.182,238.313,367.75,230.881,358.614,230.881z M359.148,273.102  c0,0.294-0.239,0.534-0.534,0.534h-34.205c-0.295,0-0.534-0.241-0.534-0.534v-25.653c0-0.294,0.239-0.534,0.534-0.534h9.086v0.534  c0,4.428,3.589,8.017,8.017,8.017c4.427,0,8.017-3.588,8.017-8.017v-0.534h9.086c0.295,0,0.534,0.241,0.534,0.534V273.102z"/>
<path d="M231.12,168.544l-34.205,136.818c-1.074,4.296,1.537,8.648,5.833,9.723c0.652,0.162,1.306,0.242,1.951,0.242  c3.591,0,6.86-2.432,7.771-6.075l34.205-136.818c1.074-4.296-1.537-8.648-5.833-9.723  C236.554,161.643,232.195,164.249,231.12,168.544z"/>
<path d="M184.708,190.473c-3.131-3.13-8.207-3.13-11.337,0l-42.756,42.756c-3.131,3.132-3.131,8.207,0,11.338l42.756,42.756  c1.565,1.565,3.617,2.347,5.668,2.347s4.103-0.782,5.668-2.347c3.131-3.132,3.131-8.207,0-11.338l-37.086-37.086l37.086-37.086  C187.839,198.68,187.839,193.604,184.708,190.473z"/>
<g>
</g>
<g>
</g>
<g>
</g>
<g>
</g>
<g>
</g>
<g>
</g>
<g>
</g>
<g>
</g>
<g>
</g>
<g>
</g>
<g>
</g>
<g>
</g>
<g>
</g>
<g>
</g>
<g>
</g>
</svg>
