<?xml version="1.0" encoding="iso-8859-1"?>
<!-- Generator: Adobe Illustrator 21.0.2, SVG Export Plug-In . SVG Version: 6.00 Build 0)  -->
<svg version="1.1" xmlns="http://www.w3.org/2000/svg" xmlns:xlink="http://www.w3.org/1999/xlink" x="0px" y="0px"
	 viewBox="0 0 64 64" style="enable-background:new 0 0 64 64;" xml:space="preserve">
<g id="css">
</g>
<g id="mobile_development">
</g>
<g id="code">
</g>
<g id="hardware_programming">
</g>
<g id="python">
</g>
<g id="development">
</g>
<g id="update">
</g>
<g id="maintenance">
</g>
<g id="peformance_testing">
</g>
<g id="programming">
</g>
<g id="hacker">
</g>
<g id="web_programming">
</g>
<g id="html">
</g>
<g id="typing">
</g>
<g id="search_1_">
</g>
<g id="android">
</g>
<g id="coding">
</g>
<g id="file">
</g>
<g id="api">
</g>
<g id="java">
	<g>
		<path d="M51.4131,1H20.1055c-0.2396,0-0.53,0.1187-0.7012,0.2876L8.9873,11.5435c-0.174,0.1707-0.2988,0.4662-0.2988,0.7124
			v46.8423c0,2.1514,1.749,3.9019,3.8984,3.9019h38.8262c2.1494,0,3.8984-1.7505,3.8984-3.9019V4.8984
			C55.3115,2.749,53.5625,1,51.4131,1z M19.1055,4.3877V9.354c0,1.0488-0.8535,1.9019-1.9023,1.9019h-5.0732L19.1055,4.3877z
			 M53.3115,59.0981C53.3115,60.147,52.46,61,51.4131,61H12.5869c-1.0469,0-1.8984-0.853-1.8984-1.9019V13.2559h6.5146
			c2.1514,0,3.9023-1.7505,3.9023-3.9019V3h30.3076c1.0469,0,1.8984,0.8516,1.8984,1.8984V59.0981z"/>
		<path d="M20.1016,44.0366h-4.623c-0.5527,0-1,0.4478-1,1s0.4473,1,1,1h3.623v5.3652c0,1.3188-1.3809,1.3594-1.5381,1.3599
			c0,0-0.001,0-0.002,0c-0.166,0-1.5439-0.0405-1.5488-1.3633c-0.002-0.5522-0.4385-1.0396-1.0029-0.9966
			c-0.5527,0.002-0.999,0.4512-0.9971,1.0034c0.0078,2.2046,1.7891,3.3564,3.5479,3.3564c0.002,0,0.0039,0,0.0068,0
			c1.7559-0.0034,3.5342-1.1582,3.5342-3.3599v-6.3652C21.1016,44.4844,20.6543,44.0366,20.1016,44.0366z"/>
		<path d="M28.4473,44.6958c-0.1436-0.3955-0.5195-0.6592-0.9404-0.6592s-0.7969,0.2637-0.9404,0.6592l-3.1621,8.7266
			c-0.1875,0.5195,0.0801,1.0928,0.5996,1.2808c0.5186,0.1899,1.0928-0.0801,1.2813-0.5991l0.8239-2.2739h2.7955l0.8239,2.2739
			c0.1475,0.4067,0.5313,0.6597,0.9404,0.6597c0.1133,0,0.2285-0.0195,0.3408-0.0605c0.5195-0.188,0.7871-0.7612,0.5996-1.2808
			L28.4473,44.6958z M26.8337,49.8301l0.6732-1.8579l0.6732,1.8579H26.8337z"/>
		<path d="M39.791,44.0967c-0.5176-0.189-1.0928,0.0796-1.2813,0.5991l-2.2217,6.1309l-2.2188-6.1304
			c-0.1885-0.519-0.7588-0.7856-1.2813-0.6001c-0.5186,0.188-0.7871,0.7617-0.5996,1.2808l3.1592,8.7266
			c0.1436,0.396,0.5195,0.6597,0.9404,0.6597s0.7969-0.2637,0.9404-0.6592l3.1621-8.7266
			C40.5781,44.8579,40.3105,44.2847,39.791,44.0967z"/>
		<path d="M46.0088,44.6958c-0.1436-0.3955-0.5195-0.6592-0.9404-0.6592s-0.7969,0.2637-0.9404,0.6597l-3.1582,8.7266
			c-0.1875,0.5195,0.0811,1.0928,0.6006,1.2808c0.1123,0.0405,0.2266,0.0601,0.3398,0.0601c0.4092,0,0.793-0.2534,0.9404-0.6602
			l0.8229-2.2734h2.7928L47.29,54.104c0.1885,0.5195,0.7637,0.7896,1.2813,0.5991c0.5195-0.188,0.7871-0.7612,0.5996-1.2808
			L46.0088,44.6958z M44.3974,49.8301l0.6719-1.8564l0.6725,1.8564H44.3974z"/>
		<path d="M48.3945,23.5313H15.6084c-0.5527,0-1,0.4478-1,1s0.4473,1,1,1h32.7861c0.5527,0,1-0.4478,1-1
			S48.9473,23.5313,48.3945,23.5313z"/>
		<path d="M15.6084,30.8662h32.4961c0.5527,0,1-0.4478,1-1s-0.4473-1-1-1H15.6084c-0.5527,0-1,0.4478-1,1
			S15.0557,30.8662,15.6084,30.8662z"/>
		<path d="M33,35.2046c0-0.5522-0.4473-1-1-1H15.6084c-0.5527,0-1,0.4478-1,1s0.4473,1,1,1H32
			C32.5527,36.2046,33,35.7568,33,35.2046z"/>
		<path d="M48.3945,18.1929H15.6084c-0.5527,0-1,0.4478-1,1s0.4473,1,1,1h32.7861c0.5527,0,1-0.4478,1-1
			S48.9473,18.1929,48.3945,18.1929z"/>
		<path d="M48.3945,12.854H27.5547c-0.5527,0-1,0.4478-1,1s0.4473,1,1,1h20.8398c0.5527,0,1-0.4478,1-1
			S48.9473,12.854,48.3945,12.854z"/>
	</g>
</g>
<g id="xml">
</g>
<g id="security">
</g>
<g id="algorithm">
</g>
<g id="php">
</g>
<g id="eror">
</g>
<g id="bug">
</g>
<g id="c_x2B__x2B_">
</g>
<g id="search">
</g>
<g id="binary">
</g>
<g id="database_sql">
</g>
</svg>
