<?xml version="1.0" encoding="iso-8859-1"?>
<!-- Generator: Adobe Illustrator 21.0.2, SVG Export Plug-In . SVG Version: 6.00 Build 0)  -->
<svg version="1.1" xmlns="http://www.w3.org/2000/svg" xmlns:xlink="http://www.w3.org/1999/xlink" x="0px" y="0px"
	 viewBox="0 0 64 64" style="enable-background:new 0 0 64 64;" xml:space="preserve">
<g id="css">
</g>
<g id="mobile_development">
</g>
<g id="code">
</g>
<g id="hardware_programming">
</g>
<g id="python">
</g>
<g id="development">
</g>
<g id="update">
</g>
<g id="maintenance">
</g>
<g id="peformance_testing">
</g>
<g id="programming">
</g>
<g id="hacker">
</g>
<g id="web_programming">
</g>
<g id="html">
</g>
<g id="typing">
</g>
<g id="search_1_">
</g>
<g id="android">
	<g>
		<path d="M27.6143,16.7715c1.4785,0,2.6812-1.2012,2.6812-2.6777c0-1.4785-1.2026-2.6812-2.6812-2.6812
			c-1.4766,0-2.6777,1.2026-2.6777,2.6812C24.9365,15.5703,26.1377,16.7715,27.6143,16.7715z M27.6143,13.4126
			c0.3755,0,0.6812,0.3057,0.6812,0.6812c0,0.3735-0.3057,0.6777-0.6812,0.6777c-0.3735,0-0.6777-0.3042-0.6777-0.6777
			C26.9365,13.7183,27.2407,13.4126,27.6143,13.4126z"/>
		<path d="M32.0015,31.8589c-6.3462,0-11.5093,5.1636-11.5093,11.5103c0,6.3457,5.1631,11.5088,11.5093,11.5088
			c6.3467,0,11.5098-5.1631,11.5098-11.5088C43.5112,37.0225,38.3481,31.8589,32.0015,31.8589z M32.0015,52.8779
			c-5.2437,0-9.5093-4.2656-9.5093-9.5088c0-5.2441,4.2656-9.5107,9.5093-9.5107s9.5098,4.2666,9.5098,9.5107
			C41.5112,48.6123,37.2451,52.8779,32.0015,52.8779z"/>
		<path d="M32.0015,38.5039c-2.6841,0-4.8682,2.1826-4.8682,4.8652c0,2.6846,2.1841,4.8682,4.8682,4.8682
			c2.6826,0,4.8652-2.1836,4.8652-4.8682C36.8667,40.6865,34.6841,38.5039,32.0015,38.5039z M32.0015,46.2373
			c-1.5815,0-2.8682-1.2871-2.8682-2.8682c0-1.5801,1.2866-2.8652,2.8682-2.8652c1.5801,0,2.8652,1.2852,2.8652,2.8652
			C34.8667,44.9502,33.5815,46.2373,32.0015,46.2373z"/>
		<path d="M47.4106,19.2861H45.189v-0.7412c0-4.4379-2.2103-8.3622-5.5807-10.7536l3.9836-5.1819
			c0.3364-0.438,0.2544-1.0654-0.1836-1.4023c-0.4385-0.3369-1.0649-0.2554-1.4023,0.1836l-4.1257,5.3668
			c-1.7727-0.8878-3.7649-1.4-5.8787-1.4c-2.1141,0-4.1064,0.5121-5.8793,1.3997l-4.1285-5.3669
			c-0.3369-0.437-0.9644-0.5205-1.4023-0.1826c-0.4375,0.3364-0.5195,0.9644-0.1826,1.4023l3.9852,5.1807
			c-3.3718,2.3913-5.5829,6.316-5.5829,10.7544v0.7412h-2.2217c-2.3262,0-4.2183,1.8926-4.2183,4.2188v22.3359
			c0,1.3672,1.1123,2.4795,2.48,2.4795h0.9463c0.3164,1.0371,0.7334,2.0439,1.2466,3.0059l-0.6694,0.6699
			c-0.4678,0.4678-0.7251,1.0898-0.7251,1.7529c0,0.6641,0.2573,1.2861,0.7251,1.7539l3.4932,3.4932
			c0.9336,0.9346,2.5718,0.9355,3.5073,0l0.6694-0.6699c0.9619,0.5137,1.9678,0.9307,3.0054,1.2471v0.9463
			c0,1.3682,1.1128,2.4805,2.4805,2.4805h4.9429c1.3657,0,2.4771-1.1123,2.4771-2.4805v-0.9463
			c1.0381-0.3164,2.0444-0.7344,3.0063-1.2471l0.6699,0.668c0.4648,0.4678,1.0859,0.7256,1.749,0.7266c0.001,0,0.0024,0,0.0039,0
			c0.6631,0,1.2852-0.2568,1.7524-0.7246l3.499-3.4951c0.9604-0.9658,0.9604-2.5371-0.0029-3.5059l-0.6704-0.6689
			c0.5112-0.958,0.9282-1.9639,1.2456-3.0059h0.9492c1.3657,0,2.4766-1.1123,2.4766-2.4795V23.5049
			C51.6289,21.1787,49.7368,19.2861,47.4106,19.2861z M49.6289,23.5049v14.9633c-0.1545-0.0303-0.3134-0.0482-0.4766-0.0482h-0.9497
			c-0.3164-1.0371-0.7334-2.0439-1.2466-3.0049l0.6743-0.6748c0.9634-0.9678,0.9624-2.5386-0.0015-3.5024l-2.4399-2.4399v-7.5117
			h2.2217C48.6338,21.2861,49.6289,22.2813,49.6289,23.5049z M34.4731,23.7407h-4.9429c-1.3677,0-2.4805,1.1113-2.4805,2.4771
			v0.9473c-1.0439,0.3193-2.0498,0.7373-3.0054,1.2476l-0.6694-0.6714c-0.6675-0.6682-1.6911-0.8499-2.564-0.5635v-5.8916H43.189
			v5.8748c-0.2578-0.0891-0.5283-0.1448-0.8096-0.1448c-0.0015,0-0.0029,0-0.0039,0c-0.6631,0.001-1.2842,0.2593-1.7471,0.7251
			l-0.6719,0.6719c-0.9556-0.5107-1.9624-0.9282-3.0063-1.248v-0.9473C36.9502,24.8521,35.8389,23.7407,34.4731,23.7407z
			 M32.0015,7.3574c6.1689,0,11.1875,5.0186,11.1875,11.1875v0.7412H20.811v-0.7412C20.811,12.376,25.8311,7.3574,32.0015,7.3574z
			 M16.5894,21.2861h2.2217v7.5128l-2.4346,2.437c-0.4683,0.4653-0.7266,1.0869-0.7271,1.75
			c-0.0005,0.6646,0.2568,1.2886,0.7236,1.7544l0.6714,0.6738c-0.5132,0.9619-0.9307,1.9678-1.2471,3.0059h-0.9463
			c-0.1644,0-0.3245,0.0178-0.48,0.0485V23.5049C14.3711,22.2813,15.3662,21.2861,16.5894,21.2861z M49.6289,45.8408
			c0,0.2598-0.2183,0.4795-0.4766,0.4795h-1.708c-0.4575,0-0.8564,0.3105-0.9692,0.7539c-0.3506,1.3789-0.8965,2.6943-1.6211,3.9111
			c-0.2349,0.3936-0.1719,0.8965,0.1528,1.2197l1.2061,1.2031c0.1836,0.1846,0.1836,0.498,0.0024,0.6807l-3.4971,3.4932
			c-0.1211,0.1211-0.2642,0.1387-0.3394,0.1387h-0.0005c-0.0737,0-0.2153-0.0176-0.3369-0.1396l-1.209-1.2061
			c-0.3223-0.3223-0.8242-0.3867-1.2168-0.1514c-1.2256,0.7275-2.542,1.2734-3.9126,1.623
			c-0.4429,0.1123-0.7529,0.5117-0.7529,0.9688v1.7041c0,0.2607-0.2183,0.4805-0.4771,0.4805h-4.9429
			c-0.2603,0-0.4805-0.2197-0.4805-0.4805v-1.7041c0-0.457-0.3101-0.8564-0.7529-0.9688c-1.3706-0.3496-2.687-0.8955-3.9126-1.623
			c-0.1587-0.0947-0.3354-0.1406-0.5103-0.1406c-0.2588,0-0.5151,0.1006-0.7075,0.293l-1.2056,1.2061
			c-0.188,0.1875-0.4922,0.1875-0.6792,0l-3.4932-3.4932c-0.187-0.1875-0.187-0.4912,0-0.6787l1.2056-1.2061
			c0.3232-0.3232,0.3862-0.8242,0.1528-1.2178c-0.728-1.2266-1.2739-2.543-1.6221-3.9121
			c-0.1128-0.4434-0.5117-0.7539-0.9692-0.7539h-1.7046c-0.2603,0-0.48-0.2197-0.48-0.4795v-4.9434
			c0-0.2637,0.2153-0.4775,0.48-0.4775h1.7046c0.4575,0,0.8564-0.3105,0.9692-0.7539c0.3486-1.3701,0.894-2.6855,1.6221-3.9111
			c0.2329-0.3926,0.1709-0.8936-0.1514-1.2168l-1.2075-1.2119c-0.1206-0.1201-0.1387-0.2637-0.1387-0.3379
			s0.0181-0.2158,0.1396-0.3369l3.4927-3.4961c0.187-0.1875,0.4912-0.1865,0.6782-0.001l1.2056,1.209
			c0.3237,0.3247,0.8267,0.3877,1.2202,0.1528c1.2119-0.7227,2.5283-1.2695,3.9126-1.625c0.4424-0.1138,0.7515-0.5122,0.7515-0.9688
			v-1.7046c0-0.2588,0.2202-0.4771,0.4805-0.4771h4.9429c0.2588,0,0.4771,0.2183,0.4771,0.4771v1.7046
			c0,0.4565,0.3091,0.855,0.7515,0.9688c1.3843,0.3555,2.7007,0.9023,3.9126,1.625c0.3936,0.2334,0.895,0.1719,1.2192-0.1519
			l1.2109-1.2109c0.1187-0.1191,0.2603-0.1372,0.334-0.1372h0.0005c0.0752,0,0.2183,0.0181,0.3394,0.1392l3.4966,3.4966
			c0.1826,0.1826,0.1816,0.4927-0.0005,0.6753l-1.209,1.21c-0.3228,0.3232-0.3857,0.8242-0.1523,1.2178
			c0.728,1.2256,1.2734,2.541,1.6221,3.9111c0.1128,0.4434,0.5117,0.7539,0.9692,0.7539h1.708c0.2583,0,0.4766,0.2188,0.4766,0.4775
			V45.8408z"/>
		<path d="M36.3555,16.7715c1.4766,0,2.6777-1.2012,2.6777-2.6777c0-1.4785-1.2012-2.6812-2.6777-2.6812
			c-1.4785,0-2.6812,1.2026-2.6812,2.6812C33.6743,15.5703,34.877,16.7715,36.3555,16.7715z M36.3555,13.4126
			c0.3735,0,0.6777,0.3057,0.6777,0.6812c0,0.3735-0.3042,0.6777-0.6777,0.6777c-0.3755,0-0.6812-0.3042-0.6812-0.6777
			C35.6743,13.7183,35.98,13.4126,36.3555,13.4126z"/>
	</g>
</g>
<g id="coding">
</g>
<g id="file">
</g>
<g id="api">
</g>
<g id="java">
</g>
<g id="xml">
</g>
<g id="security">
</g>
<g id="algorithm">
</g>
<g id="php">
</g>
<g id="eror">
</g>
<g id="bug">
</g>
<g id="c_x2B__x2B_">
</g>
<g id="search">
</g>
<g id="binary">
</g>
<g id="database_sql">
</g>
</svg>
