<?xml version="1.0" encoding="iso-8859-1"?>
<!-- Generator: Adobe Illustrator 19.0.0, SVG Export Plug-In . SVG Version: 6.00 Build 0)  -->
<svg xmlns="http://www.w3.org/2000/svg" xmlns:xlink="http://www.w3.org/1999/xlink" version="1.1" id="Layer_1" x="0px" y="0px" viewBox="0 0 512 512" style="enable-background:new 0 0 512 512;" xml:space="preserve">
<path style="fill:#7DD7FF;" d="M170.489,315.858c-1.907,0-3.726,0.32-5.568,0.561c-9.497-20.509-30.204-34.766-54.29-34.766  s-44.793,14.258-54.29,34.766c-1.842-0.243-3.661-0.561-5.568-0.561c-23.613,0-42.756,19.142-42.756,42.756  c0,23.614,19.143,42.756,42.756,42.756c10.298,0,109.418,0,119.716,0c23.613,0,42.756-19.142,42.756-42.756  C213.244,335,194.101,315.858,170.489,315.858z"/>
<path style="fill:#FFF082;" d="M461.228,315.858c-1.907,0-3.726,0.32-5.568,0.561c-9.497-20.509-30.204-34.766-54.29-34.766  c-24.086,0-44.793,14.258-54.29,34.766c-1.842-0.243-3.661-0.561-5.568-0.561c-23.613,0-42.756,19.142-42.756,42.756  c0,23.614,19.143,42.756,42.756,42.756c10.298,0,109.418,0,119.716,0c23.613,0,42.756-19.142,42.756-42.756  C503.983,335,484.84,315.858,461.228,315.858z"/>
<path style="fill:#00C3FF;" d="M157.662,375.716H86.23c-20.852,0-39.656-14.416-43.312-34.945  c-1.554-8.725-0.437-17.071,2.643-24.388c-22.997,2.828-40.415,23.673-37.15,48.115c2.865,21.449,22.261,36.871,43.901,36.871  h105.35c7.084,0,12.827-5.743,12.827-12.827l0,0C170.489,381.459,164.745,375.716,157.662,375.716z"/>
<path style="fill:#FFDC64;" d="M448.401,375.716h-71.432c-20.852,0-39.656-14.416-43.312-34.945  c-1.554-8.725-0.437-17.071,2.643-24.388c-22.997,2.828-40.415,23.673-37.15,48.115c2.865,21.449,22.261,36.871,43.901,36.871  h105.35c7.084,0,12.827-5.743,12.827-12.827l0,0C461.228,381.459,455.484,375.716,448.401,375.716z"/>
<path style="fill:#E4EAF8;" d="M315.858,144.835c-1.907,0-3.726,0.32-5.568,0.561c-9.497-20.509-30.204-34.766-54.29-34.766  s-44.793,14.258-54.29,34.766c-1.842-0.243-3.661-0.561-5.568-0.561c-23.613,0-42.756,19.142-42.756,42.756  s19.143,42.756,42.756,42.756c10.298,0,109.418,0,119.716,0c23.613,0,42.756-19.142,42.756-42.756S339.471,144.835,315.858,144.835z  "/>
<path style="fill:#D5DCED;" d="M303.031,204.693h-71.432c-20.852,0-39.656-14.416-43.312-34.945  c-1.554-8.725-0.437-17.071,2.643-24.388c-22.997,2.828-40.415,23.673-37.15,48.115c2.865,21.449,22.261,36.871,43.901,36.871  h105.35c7.084,0,12.827-5.743,12.827-12.827l0,0C315.858,210.436,310.115,204.693,303.031,204.693z"/>
<path d="M461.228,307.841c-0.331,0-0.655,0.006-0.975,0.019c-12.008-20.965-34.526-34.224-58.883-34.224  c-9.202,0-18.141,1.895-26.351,5.381c0.096-1.961,0.164-3.93,0.164-5.915c0-21.583-5.772-41.841-15.845-59.319  c4.627-7.652,7.294-16.616,7.294-26.192c0-27.995-22.777-50.772-50.772-50.772c-0.331,0-0.655,0.006-0.975,0.019  c-12.008-20.965-34.526-34.224-58.883-34.224s-46.875,13.259-58.883,34.224c-0.32-0.013-0.645-0.019-0.975-0.019  c-27.995,0-50.772,22.777-50.772,50.772c0,9.584,2.671,18.554,7.305,26.209c-10.072,17.477-15.856,37.722-15.856,59.302  c0,1.983,0.058,3.953,0.156,5.912c-8.208-3.484-17.144-5.378-26.344-5.378c-24.357,0-46.875,13.259-58.883,34.224  c-0.32-0.013-0.643-0.019-0.975-0.019C22.777,307.841,0,330.618,0,358.614c0,27.995,22.777,50.772,50.772,50.772h119.716  c18.487,0,34.692-9.935,43.571-24.743c13.052,4.929,27.183,7.64,41.94,7.64s28.89-2.707,41.943-7.635  c8.88,14.805,25.084,24.737,43.568,24.737h119.716c27.995,0,50.772-22.777,50.772-50.772  C512,330.618,489.223,307.841,461.228,307.841z M196.142,152.852c0.977,0,2.091,0.156,3.381,0.337l1.142,0.156  c3.466,0.466,6.845-1.398,8.319-4.579c8.473-18.295,26.928-30.118,47.016-30.118s38.543,11.823,47.015,30.118  c1.473,3.181,4.841,5.037,8.319,4.579l1.142-0.156c1.29-0.182,2.404-0.337,3.381-0.337c19.156,0,34.739,15.583,34.739,34.739  s-15.582,34.739-34.738,34.739H196.142c-19.156,0-34.739-15.583-34.739-34.739S176.986,152.852,196.142,152.852z M170.489,393.353  H50.772c-19.156,0-34.739-15.583-34.739-34.739c0-19.156,15.583-34.739,34.739-34.739c0.977,0,2.091,0.156,3.381,0.337l1.142,0.156  c3.465,0.465,6.845-1.398,8.319-4.579c8.473-18.295,26.928-30.118,47.016-30.118s38.543,11.823,47.015,30.118  c1.473,3.181,4.839,5.044,8.319,4.579l1.142-0.156c1.29-0.182,2.404-0.337,3.381-0.337c19.156,0,34.739,15.583,34.739,34.739  C205.226,377.769,189.644,393.353,170.489,393.353z M256,376.251c-12.654,0-24.778-2.298-35.988-6.488  c0.808-3.59,1.248-7.318,1.248-11.149c0-27.995-22.777-50.772-50.772-50.772c-0.331,0-0.655,0.006-0.975,0.019  c-4.036-7.047-9.264-13.219-15.347-18.313c-0.864-5.356-1.315-10.848-1.315-16.444c0-16.658,3.98-32.399,11.022-46.341  c8.778,7.244,20.024,11.601,32.268,11.601h119.716c12.241,0,23.485-4.355,32.262-11.596c7.043,13.941,11.028,29.679,11.028,46.335  c0,5.598-0.456,11.09-1.319,16.448c-6.081,5.094-11.307,11.264-15.342,18.309c-0.32-0.013-0.645-0.019-0.975-0.019  c-27.995,0-50.772,22.777-50.772,50.772c0,3.831,0.44,7.559,1.248,11.15C280.777,373.951,268.654,376.251,256,376.251z   M461.228,393.353H341.511c-19.156,0-34.739-15.583-34.739-34.739c0-19.156,15.583-34.739,34.739-34.739  c0.977,0,2.091,0.156,3.381,0.337l1.142,0.156c3.469,0.465,6.845-1.398,8.319-4.579c8.473-18.295,26.928-30.118,47.016-30.118  c20.089,0,38.543,11.823,47.015,30.118c1.473,3.181,4.837,5.044,8.319,4.579l1.142-0.156c1.29-0.182,2.404-0.337,3.381-0.337  c19.156,0,34.739,15.583,34.739,34.739C495.965,377.769,480.383,393.353,461.228,393.353z"/>
<path d="M256,152.852c7.473,0,14.161,4.732,16.641,11.775c1.161,3.295,4.255,5.356,7.561,5.356c0.883,0,1.782-0.148,2.663-0.457  c4.176-1.471,6.37-6.048,4.899-10.224c-4.735-13.449-17.5-22.483-31.763-22.483c-4.428,0-8.017,3.588-8.017,8.017  C247.983,149.264,251.572,152.852,256,152.852z"/>
<path d="M401.37,307.816c-4.428,0-8.017,3.588-8.017,8.017s3.588,8.017,8.017,8.017c7.473,0,14.161,4.732,16.641,11.775  c1.161,3.295,4.255,5.356,7.561,5.356c0.883,0,1.782-0.147,2.663-0.457c4.176-1.471,6.37-6.048,4.899-10.224  C428.398,316.85,415.633,307.816,401.37,307.816z"/>
<path d="M110.63,307.816c-4.428,0-8.017,3.588-8.017,8.017s3.588,8.017,8.017,8.017c7.473,0,14.161,4.732,16.641,11.775  c1.161,3.295,4.255,5.356,7.561,5.356c0.883,0,1.782-0.147,2.663-0.457c4.176-1.471,6.37-6.048,4.899-10.224  C137.659,316.85,124.894,307.816,110.63,307.816z"/>
<g>
</g>
<g>
</g>
<g>
</g>
<g>
</g>
<g>
</g>
<g>
</g>
<g>
</g>
<g>
</g>
<g>
</g>
<g>
</g>
<g>
</g>
<g>
</g>
<g>
</g>
<g>
</g>
<g>
</g>
</svg>
