<?xml version="1.0" encoding="iso-8859-1"?>
<!-- Generator: Adobe Illustrator 19.0.0, SVG Export Plug-In . SVG Version: 6.00 Build 0)  -->
<svg xmlns="http://www.w3.org/2000/svg" xmlns:xlink="http://www.w3.org/1999/xlink" version="1.1" id="Layer_1" x="0px" y="0px" viewBox="0 0 512.002 512.002" style="enable-background:new 0 0 512.002 512.002;" xml:space="preserve">
<path style="fill:#E4EAF8;" d="M435.574,435.575H25.119c-9.446,0-17.102-7.656-17.102-17.102V59.324  c0-9.446,7.656-17.102,17.102-17.102h410.455c9.446,0,17.102,7.656,17.102,17.102v359.148  C452.676,427.918,445.02,435.575,435.574,435.575z"/>
<path style="fill:#D5DCED;" d="M414.071,435.575l38.605-38.605V252.965c-1.998,1.299-3.893,2.779-5.617,4.503l-127.66,127.659  l-3.289,3.29l-1.925,4.235l-19.509,42.922H414.071z"/>
<path style="fill:#C7CFE2;" d="M8.017,110.631V59.324c0-9.446,7.656-17.102,17.102-17.102h410.455  c9.446,0,17.102,7.656,17.102,17.102v51.307"/>
<circle style="fill:#FFDC64;" cx="93.528" cy="187.591" r="17.102"/>
<circle style="fill:#FFC850;" cx="93.528" cy="273.103" r="17.102"/>
<g>
	<circle style="fill:#FFDC64;" cx="93.528" cy="358.614" r="17.102"/>
	<path style="fill:#FFDC64;" d="M373.819,439.547l-66.512,30.233l30.233-66.512l127.659-127.659c3.339-3.339,8.754-3.339,12.093,0   l24.186,24.186c3.339,3.339,3.339,8.754,0,12.093L373.819,439.547z"/>
</g>
<path style="fill:#FFC850;" d="M354.338,422.748l135.048-135.047l-12.093-12.092c-3.339-3.34-8.753-3.34-12.092,0L337.539,403.266  l-0.838,1.845L354.338,422.748z"/>
<polygon style="fill:#FAEBC8;" points="307.307,469.779 371.975,440.385 336.701,405.111 "/>
<polygon style="fill:#F5DCB4;" points="336.701,405.111 307.307,469.779 354.338,422.748 "/>
<path style="fill:#FAEBC8;" d="M477.292,275.607c-3.339-3.34-8.753-3.34-12.092,0l-17.837,17.836l36.279,36.279l17.836-17.837  c3.34-3.339,3.34-8.753,0-12.093L477.292,275.607z"/>
<path style="fill:#F5DCB4;" d="M489.387,287.701l-12.093-12.092c-3.339-3.34-8.753-3.34-12.092,0l-17.837,17.836l18.139,18.139  L489.387,287.701z"/>
<path d="M290.205,427.558H25.119c-5.01,0-9.086-4.076-9.086-9.086V118.648h316.928c4.427,0,8.017-3.589,8.017-8.017  s-3.589-8.017-8.017-8.017H16.033v-43.29c0-5.01,4.076-9.086,9.086-9.086h410.455c5.01,0,9.086,4.076,9.086,9.086v43.29h-26.188  c-4.427,0-8.017,3.589-8.017,8.017s3.589,8.017,8.017,8.017h26.188v128.802c0,4.427,3.589,8.017,8.017,8.017  c4.427,0,8.017-3.589,8.017-8.017V59.324c0-13.851-11.268-25.119-25.119-25.119H25.119C11.268,34.205,0,45.473,0,59.324v359.148  c0,13.851,11.268,25.119,25.119,25.119h265.086c4.427,0,8.017-3.589,8.017-8.017C298.221,431.147,294.632,427.558,290.205,427.558z"/>
<path d="M384.269,102.614h-17.104c-4.427,0-8.017,3.589-8.017,8.017s3.589,8.017,8.017,8.017h17.105  c4.427,0,8.017-3.589,8.017-8.017S388.698,102.614,384.269,102.614z"/>
<path d="M42.221,68.41c-4.427,0-7.974,3.589-7.974,8.017c0,4.427,3.632,8.017,8.059,8.017s8.017-3.589,8.017-8.017  c0-4.427-3.589-8.017-8.017-8.017H42.221z"/>
<path d="M110.63,68.41c-4.427,0-7.974,3.589-7.974,8.017c0,4.427,3.632,8.017,8.059,8.017s8.017-3.589,8.017-8.017  c0-4.427-3.589-8.017-8.017-8.017H110.63z"/>
<path d="M76.34,68.41c-4.427,0-7.974,3.589-7.974,8.017c0,4.427,3.632,8.017,8.059,8.017s8.017-3.589,8.017-8.017  c0-4.427-3.589-8.017-8.017-8.017H76.34z"/>
<path d="M426.489,76.426c0-4.427-3.589-8.017-8.017-8.017H144.835c-4.427,0-8.017,3.589-8.017,8.017  c0,4.427,3.589,8.017,8.017,8.017h273.637C422.899,84.443,426.489,80.854,426.489,76.426z"/>
<path d="M93.528,162.472c-13.851,0-25.119,11.268-25.119,25.119s11.268,25.119,25.119,25.119s25.119-11.268,25.119-25.119  C118.647,173.741,107.379,162.472,93.528,162.472z M93.528,196.677c-5.01,0-9.086-4.076-9.086-9.086s4.076-9.086,9.086-9.086  c5.01,0,9.086,4.076,9.086,9.086S98.538,196.677,93.528,196.677z"/>
<path d="M384.267,162.472H144.835c-4.427,0-8.017,3.589-8.017,8.017s3.589,8.017,8.017,8.017h239.432  c4.427,0,8.017-3.589,8.017-8.017S388.695,162.472,384.267,162.472z"/>
<path d="M144.835,212.71h17.102c4.427,0,8.017-3.589,8.017-8.017s-3.589-8.017-8.017-8.017h-17.102  c-4.427,0-8.017,3.589-8.017,8.017S140.408,212.71,144.835,212.71z"/>
<path d="M264.551,212.71c4.427,0,8.017-3.589,8.017-8.017s-3.589-8.017-8.017-8.017h-17.102c-4.427,0-8.017,3.589-8.017,8.017  s3.589,8.017,8.017,8.017H264.551z"/>
<path d="M213.244,212.71c4.427,0,8.017-3.589,8.017-8.017s-3.589-8.017-8.017-8.017h-17.102c-4.427,0-8.017,3.589-8.017,8.017  s3.589,8.017,8.017,8.017H213.244z"/>
<path d="M93.528,247.984c-13.851,0-25.119,11.268-25.119,25.119c0,13.851,11.268,25.119,25.119,25.119s25.119-11.268,25.119-25.119  S107.379,247.984,93.528,247.984z M93.528,282.188c-5.01,0-9.086-4.076-9.086-9.086s4.076-9.086,9.086-9.086  c5.01,0,9.086,4.076,9.086,9.086S98.538,282.188,93.528,282.188z"/>
<path d="M392.284,256.001c0-4.427-3.589-8.017-8.017-8.017H144.835c-4.427,0-8.017,3.589-8.017,8.017  c0,4.427,3.589,8.017,8.017,8.017h239.432C388.695,264.017,392.284,260.428,392.284,256.001z"/>
<path d="M144.835,298.222h17.102c4.427,0,8.017-3.589,8.017-8.017c0-4.427-3.589-8.017-8.017-8.017h-17.102  c-4.427,0-8.017,3.589-8.017,8.017C136.818,294.632,140.408,298.222,144.835,298.222z"/>
<path d="M264.551,298.222c4.427,0,8.017-3.589,8.017-8.017c0-4.427-3.589-8.017-8.017-8.017h-17.102  c-4.427,0-8.017,3.589-8.017,8.017c0,4.427,3.589,8.017,8.017,8.017H264.551z"/>
<path d="M213.244,298.222c4.427,0,8.017-3.589,8.017-8.017c0-4.427-3.589-8.017-8.017-8.017h-17.102  c-4.427,0-8.017,3.589-8.017,8.017c0,4.427,3.589,8.017,8.017,8.017H213.244z"/>
<path d="M93.528,333.495c-13.851,0-25.119,11.268-25.119,25.119s11.268,25.119,25.119,25.119s25.119-11.268,25.119-25.119  S107.379,333.495,93.528,333.495z M93.528,367.7c-5.01,0-9.086-4.076-9.086-9.086s4.076-9.086,9.086-9.086  c5.01,0,9.086,4.076,9.086,9.086S98.538,367.7,93.528,367.7z"/>
<path d="M315.324,341.512c0-4.427-3.589-8.017-8.017-8.017H144.835c-4.427,0-8.017,3.589-8.017,8.017s3.589,8.017,8.017,8.017  h162.472C311.734,349.529,315.324,345.939,315.324,341.512z"/>
<path d="M144.835,367.7c-4.427,0-8.017,3.589-8.017,8.017c0,4.427,3.589,8.017,8.017,8.017h17.102c4.427,0,8.017-3.589,8.017-8.017  c0-4.427-3.589-8.017-8.017-8.017H144.835z"/>
<path d="M247.449,367.7c-4.427,0-8.017,3.589-8.017,8.017c0,4.427,3.589,8.017,8.017,8.017h17.102c4.427,0,8.017-3.589,8.017-8.017  c0-4.427-3.589-8.017-8.017-8.017H247.449z"/>
<path d="M196.142,367.7c-4.427,0-8.017,3.589-8.017,8.017c0,4.427,3.589,8.017,8.017,8.017h17.102c4.427,0,8.017-3.589,8.017-8.017  c0-4.427-3.589-8.017-8.017-8.017H196.142z"/>
<path d="M507.147,294.125l-24.186-24.186c-3.13-3.13-7.29-4.854-11.715-4.854c-4.425,0-8.586,1.723-11.715,4.853l-127.66,127.66  c-0.68,0.68-1.231,1.476-1.629,2.352l-30.233,66.513c-1.383,3.042-0.734,6.623,1.629,8.986c1.537,1.537,3.587,2.348,5.67,2.348  c1.12,0,2.251-0.235,3.316-0.718l66.513-30.233c0.875-0.398,1.672-0.949,2.352-1.629l127.659-127.659  c3.13-3.13,4.854-7.29,4.854-11.715S510.277,297.254,507.147,294.125z M348.877,403.267l98.182-98.182l24.942,24.942l-98.182,98.182  L348.877,403.267z M340.051,417.115l19.92,19.92l-36.52,16.6L340.051,417.115z M495.811,306.218l-12.471,12.471l-24.942-24.942  l12.472-12.472c0.038-0.039,0.156-0.156,0.377-0.156s0.339,0.118,0.378,0.156l24.187,24.187c0.038,0.039,0.156,0.156,0.156,0.377  C495.969,306.061,495.849,306.179,495.811,306.218z"/>
<g>
</g>
<g>
</g>
<g>
</g>
<g>
</g>
<g>
</g>
<g>
</g>
<g>
</g>
<g>
</g>
<g>
</g>
<g>
</g>
<g>
</g>
<g>
</g>
<g>
</g>
<g>
</g>
<g>
</g>
</svg>
